<?xml version="1.0" ?><svg viewBox="0 0 400 400" xmlns="http://www.w3.org/2000/svg"><g data-name="Layer 33" id="Layer_33"><path d="M132.77,350.32h-19a35,35,0,0,1-35-35V185a6.88,6.88,0,0,0-6.88-6.88h-21c-13.51,0-18.45-6.09-20.19-9.72s-3.4-11.28,5-21.82L100.6,65.61c6-7.44,14-11.53,22.66-11.54s16.7,4.1,22.66,11.54l64.86,81c8.44,10.54,6.78,18.2,5,21.82s-6.68,9.72-20.19,9.72h-21a6.88,6.88,0,0,0-6.88,6.88V315.32A35,35,0,0,1,132.77,350.32ZM123.26,64.07c-5.56,0-10.83,2.77-14.86,7.79l-64.85,81c-3.62,4.51-5,8.71-3.83,11.24s5.39,4,11.17,4h21A16.9,16.9,0,0,1,88.75,185V315.32a25,25,0,0,0,25,25h19a25,25,0,0,0,25-25V185a16.9,16.9,0,0,1,16.88-16.88h21c5.78,0,10-1.51,11.17-4s-.21-6.73-3.83-11.24L138.12,71.86C134.09,66.84,128.82,64.07,123.26,64.07Z"/><path d="M276.74,345.93h0c-8.65,0-16.7-4.1-22.66-11.54l-64.86-80.95c-8.44-10.54-6.78-18.2-5-21.82s6.68-9.72,20.19-9.72h21a6.88,6.88,0,0,0,6.88-6.88V84.68a35,35,0,0,1,35-35h19a35,35,0,0,1,35,35V215a6.89,6.89,0,0,0,6.88,6.88h21c13.51,0,18.45,6.09,20.19,9.72s3.4,11.28-5,21.82L299.4,334.39C293.44,341.83,285.4,345.93,276.74,345.93Zm-72.37-114c-5.78,0-10,1.51-11.17,4s.21,6.73,3.83,11.24l64.85,80.95c4,5,9.3,7.79,14.86,7.79s10.83-2.77,14.86-7.79l64.85-80.95c3.62-4.51,5.05-8.71,3.83-11.24s-5.39-4-11.17-4h-21A16.9,16.9,0,0,1,311.25,215V84.68a25,25,0,0,0-25-25h-19a25,25,0,0,0-25,25V215a16.9,16.9,0,0,1-16.88,16.88Z"/></g></svg>